<?xml version="1.0" encoding="utf-8"?>
<!-- Generator: Adobe Illustrator 24.1.3, SVG Export Plug-In . SVG Version: 6.00 Build 0)  -->
<svg version="1.1" id="Слой_1" xmlns="http://www.w3.org/2000/svg" xmlns:xlink="http://www.w3.org/1999/xlink" x="0px" y="0px"
	 viewBox="0 0 1920 1080" style="enable-background:new 0 0 1920 1080;" xml:space="preserve">
<style type="text/css">
	.st0{fill:url(#SVGID_1_);}
	.st1{fill:url(#SVGID_2_);}
	.st2{opacity:0.3;fill:url(#SVGID_3_);}
	.st3{opacity:0.3;fill:url(#SVGID_4_);}
	.st4{fill:url(#SVGID_5_);}
	.st5{fill:url(#SVGID_6_);}
	.st6{fill:url(#SVGID_7_);}
	.st7{fill:url(#SVGID_8_);}
	.st8{opacity:0.3;fill:url(#SVGID_9_);}
	.st9{fill:url(#SVGID_10_);}
	.st10{fill:url(#SVGID_11_);}
	.st11{fill:url(#SVGID_12_);}
	.st12{opacity:0.3;fill:url(#SVGID_13_);}
	.st13{fill:url(#SVGID_14_);}
	.st14{fill:url(#SVGID_15_);}
	.st15{fill:url(#SVGID_16_);}
	.st16{fill:url(#SVGID_17_);}
	.st17{opacity:0.3;fill:url(#SVGID_18_);}
	.st18{fill:url(#SVGID_19_);}
	.st19{fill:url(#SVGID_20_);}
	.st20{fill:url(#SVGID_21_);}
	.st21{opacity:0.3;fill:url(#SVGID_22_);}
	.st22{fill:url(#SVGID_23_);}
	.st23{fill:url(#SVGID_24_);}
	.st24{fill:url(#SVGID_25_);}
	.st25{fill:url(#SVGID_26_);}
	.st26{opacity:0.3;fill:url(#SVGID_27_);}
	.st27{fill:url(#SVGID_28_);}
	.st28{fill:url(#SVGID_29_);}
	.st29{fill:url(#SVGID_30_);}
	.st30{opacity:0.3;fill:url(#SVGID_31_);}
</style>
<g>
	<path d="M1937-16v1112H-16V-16H1937 M1938-17H-17v1114h1955V-17L1938-17z"/>
</g>
<linearGradient id="SVGID_1_" gradientUnits="userSpaceOnUse" x1="1678.119" y1="364.6648" x2="2072.366" y2="137.0462">
	<stop  offset="0" style="stop-color:#DD6AFF"/>
	<stop  offset="0.303" style="stop-color:#AB52FF"/>
	<stop  offset="0.6168" style="stop-color:#7E3CFF"/>
	<stop  offset="0.8596" style="stop-color:#612FFF"/>
	<stop  offset="1" style="stop-color:#572AFF"/>
</linearGradient>
<path class="st0" d="M2045.78,144.61l6.82,7.05c7.82,8.09,20.42,8.18,28.38,0.32l-31.52-22.39
	C2045.65,136.99,2043.86,142.63,2045.78,144.61z"/>
<linearGradient id="SVGID_2_" gradientUnits="userSpaceOnUse" x1="2081.6982" y1="96.425" x2="2491.2217" y2="-140.0134">
	<stop  offset="0" style="stop-color:#DD6AFF"/>
	<stop  offset="0.303" style="stop-color:#AB52FF"/>
	<stop  offset="0.6168" style="stop-color:#7E3CFF"/>
	<stop  offset="0.8596" style="stop-color:#612FFF"/>
	<stop  offset="1" style="stop-color:#572AFF"/>
</linearGradient>
<path class="st1" d="M2120.05,64.25L2113,57.2c-2.37-2.37-9.95,0.73-19.52,6.33L2093,64v52l32.64-32.17
	C2127.21,77.01,2125.36,69.56,2120.05,64.25z"/>
<linearGradient id="SVGID_3_" gradientUnits="userSpaceOnUse" x1="2099.198" y1="98.4231" x2="2176.6846" y2="166.7938">
	<stop  offset="0.2224" style="stop-color:#000000"/>
	<stop  offset="0.5713" style="stop-color:#000000;stop-opacity:0"/>
</linearGradient>
<path class="st2" d="M2122.93,151.86c4.59,4.59,10.77,6.6,16.76,6.06l30.31-29.57l-0.02-0.02c-8.44,7.98-21.8,7.88-30.1-0.33
	l-7.23-7.16c-2.03-2.01-0.13-7.74,3.91-15.25l0,0l-26.72,26.29c0.43,4.72,2.45,9.32,6.06,12.93L2122.93,151.86z"/>
<linearGradient id="SVGID_4_" gradientUnits="userSpaceOnUse" x1="2036.9297" y1="102.1271" x2="2114.4165" y2="170.4978">
	<stop  offset="0.2224" style="stop-color:#000000"/>
	<stop  offset="0.5713" style="stop-color:#000000;stop-opacity:0"/>
</linearGradient>
<path class="st3" d="M2064.99,100.7c-4.77-4.77-11.27-6.75-17.49-5.96l-23.03,22.65c9.82-5.69,17.6-8.84,20.03-6.43l7.23,7.16
	c5.45,5.4,7.35,12.96,5.73,19.89l20.25-19.76c-0.81-3.84-2.7-7.51-5.68-10.49L2064.99,100.7z"/>
<g>
	<g>
		<linearGradient id="SVGID_5_" gradientUnits="userSpaceOnUse" x1="1297.7344" y1="435.7018" x2="1638.2394" y2="239.1112">
			<stop  offset="0" style="stop-color:#DD6AFF"/>
			<stop  offset="0.303" style="stop-color:#AB52FF"/>
			<stop  offset="0.6168" style="stop-color:#7E3CFF"/>
			<stop  offset="0.8596" style="stop-color:#612FFF"/>
			<stop  offset="1" style="stop-color:#572AFF"/>
		</linearGradient>
		<path class="st4" d="M1621.52,210.18c-7.25,6.92-18.73,6.84-25.85-0.29l-6.21-6.21c-1.75-1.75-0.12-6.71,3.35-13.23l0,0
			l-277.48,275.74c8.44-4.93,15.12-7.67,17.2-5.58l6.21,6.21c4.68,4.68,6.31,11.25,4.93,17.26l277.87-273.88L1621.52,210.18z"/>
	</g>
	<g>
		<linearGradient id="SVGID_6_" gradientUnits="userSpaceOnUse" x1="1454.4178" y1="475.8018" x2="1747.4216" y2="306.6361">
			<stop  offset="0" style="stop-color:#DD6AFF"/>
			<stop  offset="0.303" style="stop-color:#AB52FF"/>
			<stop  offset="0.6168" style="stop-color:#7E3CFF"/>
			<stop  offset="0.8596" style="stop-color:#612FFF"/>
			<stop  offset="1" style="stop-color:#572AFF"/>
		</linearGradient>
		<path class="st5" d="M1720.17,279.67l-6.21-6.21c-3.18-3.18-4.96-7.24-5.34-11.39l-240.83,236.89c5.48-0.69,11.2,1.05,15.41,5.26
			l6.21,6.21c2.63,2.63,4.29,5.86,5.01,9.25l240.52-234.66C1729.66,285.49,1724.21,283.72,1720.17,279.67z"/>
	</g>
	<g>
		<g>
			<linearGradient id="SVGID_7_" gradientUnits="userSpaceOnUse" x1="1652.364" y1="72.2214" x2="1690.9633" y2="49.9361">
				<stop  offset="0" style="stop-color:#DD6AFF"/>
				<stop  offset="0.303" style="stop-color:#AB52FF"/>
				<stop  offset="0.6168" style="stop-color:#7E3CFF"/>
				<stop  offset="0.8596" style="stop-color:#612FFF"/>
				<stop  offset="1" style="stop-color:#572AFF"/>
			</linearGradient>
			<path class="st6" d="M1658.58,78.52c7.23,7.23,18.94,7.23,26.17,0l4.36-4.36c7.23-7.23,7.23-18.94,0-26.17l-4.36-4.36
				c-7.23-7.23-18.94-7.23-26.17,0l-4.36,4.36c-7.23,7.23-7.23,18.94,0,26.17L1658.58,78.52z"/>
		</g>
		<g>
			<linearGradient id="SVGID_8_" gradientUnits="userSpaceOnUse" x1="1392.6658" y1="659.4171" x2="1431.265" y2="637.1318">
				<stop  offset="0" style="stop-color:#DD6AFF"/>
				<stop  offset="0.303" style="stop-color:#AB52FF"/>
				<stop  offset="0.6168" style="stop-color:#7E3CFF"/>
				<stop  offset="0.8596" style="stop-color:#612FFF"/>
				<stop  offset="1" style="stop-color:#572AFF"/>
			</linearGradient>
			<path class="st7" d="M1425.05,630.83c-7.23-7.23-18.94-7.23-26.17,0l-4.36,4.36c-7.23,7.23-7.23,18.94,0,26.17l4.36,4.36
				c7.23,7.23,18.94,7.23,26.17,0l4.36-4.36c7.23-7.23,7.23-18.94,0-26.17L1425.05,630.83z"/>
		</g>
		<linearGradient id="SVGID_9_" gradientUnits="userSpaceOnUse" x1="1445.3812" y1="317.8439" x2="1510.0903" y2="374.9402">
			<stop  offset="0.2224" style="stop-color:#000000"/>
			<stop  offset="0.5713" style="stop-color:#000000;stop-opacity:0"/>
		</linearGradient>
		<path class="st8" d="M1621.52,210.18c-7.25,6.92-18.73,6.84-25.85-0.29l-6.21-6.21c-1.75-1.75-0.12-6.71,3.35-13.23l0,0
			l-277.48,275.74c8.44-4.93,15.12-7.67,17.2-5.58l6.21,6.21c4.68,4.68,6.31,11.25,4.93,17.26l277.87-273.88L1621.52,210.18z"/>
		<g>
			<linearGradient id="SVGID_10_" gradientUnits="userSpaceOnUse" x1="1196.1342" y1="438.8867" x2="1667.313" y2="166.8515">
				<stop  offset="0" style="stop-color:#DD6AFF"/>
				<stop  offset="0.303" style="stop-color:#AB52FF"/>
				<stop  offset="0.6168" style="stop-color:#7E3CFF"/>
				<stop  offset="0.8596" style="stop-color:#612FFF"/>
				<stop  offset="1" style="stop-color:#572AFF"/>
			</linearGradient>
			<path class="st9" d="M1315.33,466.18l277.48-275.74l0,0c10.88-20.43,39.86-56.15,39.86-56.15c7.23-7.23,7.23-18.94,0-26.17
				l-6.21-6.21c-7.23-7.23-18.94-7.23-26.17,0l-369.52,369.52c-7.23,7.23-7.23,18.94,0,26.17l6.21,6.21
				c7.23,7.23,18.94,7.23,26.17,0c0,0,30.77-24.97,51.53-37.26C1314.9,466.43,1315.11,466.31,1315.33,466.18z"/>
		</g>
		<g>
			<linearGradient id="SVGID_11_" gradientUnits="userSpaceOnUse" x1="1298.1351" y1="503.1571" x2="1816.6327" y2="203.8025">
				<stop  offset="0" style="stop-color:#DD6AFF"/>
				<stop  offset="0.303" style="stop-color:#AB52FF"/>
				<stop  offset="0.6168" style="stop-color:#7E3CFF"/>
				<stop  offset="0.8596" style="stop-color:#612FFF"/>
				<stop  offset="1" style="stop-color:#572AFF"/>
			</linearGradient>
			<path class="st10" d="M1713.96,247.29l70.97-70.97c7.23-7.23,7.23-18.94,0-26.17l-6.21-6.21c-7.23-7.23-18.94-7.23-26.17,0
				l-72.16,72.16c-7.23,7.23-18.94,7.23-26.17,0l-6.21-6.21c-7.23-7.23-18.94-7.23-26.17,0c-0.1,0.1-0.21,0.19-0.32,0.29l0.02,0.01
				l-277.87,273.88c-0.75,3.26-2.38,6.37-4.93,8.91l-19.43,19.43c-7.23,7.23-7.23,18.94,0,26.17l6.21,6.21
				c7.23,7.23,18.94,7.23,26.17,0l14.67-14.67c7.23-7.23,18.94-7.23,26.17,0l6.21,6.21c7.23,7.23,18.94,7.23,26.17,0l32.12-32.12
				c3.02-3.02,6.82-4.76,10.76-5.26l240.83-236.89C1708.13,256.79,1709.91,251.34,1713.96,247.29z"/>
		</g>
		<g>
			<linearGradient id="SVGID_12_" gradientUnits="userSpaceOnUse" x1="1409.4591" y1="545.7902" x2="1897.5237" y2="264.0061">
				<stop  offset="0" style="stop-color:#DD6AFF"/>
				<stop  offset="0.303" style="stop-color:#AB52FF"/>
				<stop  offset="0.6168" style="stop-color:#7E3CFF"/>
				<stop  offset="0.8596" style="stop-color:#612FFF"/>
				<stop  offset="1" style="stop-color:#572AFF"/>
			</linearGradient>
			<path class="st11" d="M1861.58,203.02l-6.21-6.21c-7.23-7.23-18.94-7.23-26.17,0l-82.87,82.87c-3.18,3.18-7.24,4.96-11.4,5.34
				l-240.52,234.66c1.25,5.92-0.41,12.33-5.01,16.92l-44.01,44.01c-7.23,7.23-7.23,18.94,0,26.17l6.21,6.21
				c7.23,7.23,18.94,7.23,26.17,0l383.8-383.8C1868.81,221.96,1868.81,210.25,1861.58,203.02z"/>
		</g>
		<linearGradient id="SVGID_13_" gradientUnits="userSpaceOnUse" x1="1577.3275" y1="370.7797" x2="1645.6023" y2="431.0222">
			<stop  offset="0.2224" style="stop-color:#000000"/>
			<stop  offset="0.5713" style="stop-color:#000000;stop-opacity:0"/>
		</linearGradient>
		<path class="st12" d="M1720.17,279.67l-6.21-6.21c-3.18-3.18-4.96-7.24-5.34-11.39l-240.83,236.89c5.48-0.69,11.2,1.05,15.41,5.26
			l6.21,6.21c2.63,2.63,4.29,5.86,5.01,9.25l240.52-234.66C1729.66,285.49,1724.21,283.72,1720.17,279.67z"/>
	</g>
</g>
<g>
	<g>
		<linearGradient id="SVGID_14_" gradientUnits="userSpaceOnUse" x1="152.7157" y1="737.8054" x2="417.8652" y2="584.7213">
			<stop  offset="0" style="stop-color:#DD6AFF"/>
			<stop  offset="0.303" style="stop-color:#AB52FF"/>
			<stop  offset="0.6168" style="stop-color:#7E3CFF"/>
			<stop  offset="0.8596" style="stop-color:#612FFF"/>
			<stop  offset="1" style="stop-color:#572AFF"/>
		</linearGradient>
		<path class="st13" d="M404.85,562.19c-5.64,5.39-14.58,5.33-20.13-0.22l-4.84-4.84c-1.36-1.36-0.09-5.23,2.61-10.3l0,0
			L166.42,761.54c6.57-3.84,11.77-5.97,13.4-4.34l4.84,4.84c3.65,3.65,4.91,8.76,3.84,13.44L404.86,562.2L404.85,562.19z"/>
	</g>
	<g>
		<linearGradient id="SVGID_15_" gradientUnits="userSpaceOnUse" x1="274.7244" y1="769.031" x2="502.8849" y2="637.3025">
			<stop  offset="0" style="stop-color:#DD6AFF"/>
			<stop  offset="0.303" style="stop-color:#AB52FF"/>
			<stop  offset="0.6168" style="stop-color:#7E3CFF"/>
			<stop  offset="0.8596" style="stop-color:#612FFF"/>
			<stop  offset="1" style="stop-color:#572AFF"/>
		</linearGradient>
		<path class="st14" d="M481.66,616.31l-4.84-4.84c-2.48-2.48-3.86-5.63-4.16-8.87L285.14,787.07c4.27-0.54,8.72,0.82,12,4.09
			l4.84,4.84c2.05,2.05,3.34,4.56,3.9,7.2l187.29-182.73C489.05,620.84,484.81,619.46,481.66,616.31z"/>
	</g>
	<g>
		<g>
			<linearGradient id="SVGID_16_" gradientUnits="userSpaceOnUse" x1="428.8641" y1="454.765" x2="458.9211" y2="437.4116">
				<stop  offset="0" style="stop-color:#DD6AFF"/>
				<stop  offset="0.303" style="stop-color:#AB52FF"/>
				<stop  offset="0.6168" style="stop-color:#7E3CFF"/>
				<stop  offset="0.8596" style="stop-color:#612FFF"/>
				<stop  offset="1" style="stop-color:#572AFF"/>
			</linearGradient>
			<path class="st15" d="M433.7,459.67c5.63,5.63,14.75,5.63,20.38,0l3.4-3.4c5.63-5.63,5.63-14.75,0-20.38l-3.4-3.4
				c-5.63-5.63-14.75-5.63-20.38,0l-3.4,3.4c-5.63,5.63-5.63,14.75,0,20.38L433.7,459.67z"/>
		</g>
		<g>
			<linearGradient id="SVGID_17_" gradientUnits="userSpaceOnUse" x1="226.6384" y1="912.0113" x2="256.6954" y2="894.6578">
				<stop  offset="0" style="stop-color:#DD6AFF"/>
				<stop  offset="0.303" style="stop-color:#AB52FF"/>
				<stop  offset="0.6168" style="stop-color:#7E3CFF"/>
				<stop  offset="0.8596" style="stop-color:#612FFF"/>
				<stop  offset="1" style="stop-color:#572AFF"/>
			</linearGradient>
			<path class="st16" d="M251.86,889.75c-5.63-5.63-14.75-5.63-20.38,0l-3.4,3.4c-5.63,5.63-5.63,14.75,0,20.38l3.4,3.4
				c5.63,5.63,14.75,5.63,20.38,0l3.4-3.4c5.63-5.63,5.63-14.75,0-20.38L251.86,889.75z"/>
		</g>
		<linearGradient id="SVGID_18_" gradientUnits="userSpaceOnUse" x1="267.6876" y1="646.03" x2="318.0762" y2="690.4905">
			<stop  offset="0.2224" style="stop-color:#000000"/>
			<stop  offset="0.5713" style="stop-color:#000000;stop-opacity:0"/>
		</linearGradient>
		<path class="st17" d="M404.85,562.19c-5.64,5.39-14.58,5.33-20.13-0.22l-4.84-4.84c-1.36-1.36-0.09-5.23,2.61-10.3l0,0
			L166.42,761.54c6.57-3.84,11.77-5.97,13.4-4.34l4.84,4.84c3.65,3.65,4.91,8.76,3.84,13.44L404.86,562.2L404.85,562.19z"/>
		<g>
			<linearGradient id="SVGID_19_" gradientUnits="userSpaceOnUse" x1="73.6002" y1="740.2854" x2="440.5048" y2="528.4529">
				<stop  offset="0" style="stop-color:#DD6AFF"/>
				<stop  offset="0.303" style="stop-color:#AB52FF"/>
				<stop  offset="0.6168" style="stop-color:#7E3CFF"/>
				<stop  offset="0.8596" style="stop-color:#612FFF"/>
				<stop  offset="1" style="stop-color:#572AFF"/>
			</linearGradient>
			<path class="st18" d="M166.42,761.54l216.07-214.71l0,0c8.47-15.91,31.04-43.73,31.04-43.73c5.63-5.63,5.63-14.75,0-20.38
				l-4.84-4.84c-5.63-5.63-14.75-5.63-20.38,0L100.57,765.64c-5.63,5.63-5.63,14.75,0,20.38l4.84,4.84c5.63,5.63,14.75,5.63,20.38,0
				c0,0,23.96-19.45,40.13-29.01C166.08,761.74,166.25,761.64,166.42,761.54z"/>
		</g>
		<g>
			<linearGradient id="SVGID_20_" gradientUnits="userSpaceOnUse" x1="153.0278" y1="790.3325" x2="556.7792" y2="557.2265">
				<stop  offset="0" style="stop-color:#DD6AFF"/>
				<stop  offset="0.303" style="stop-color:#AB52FF"/>
				<stop  offset="0.6168" style="stop-color:#7E3CFF"/>
				<stop  offset="0.8596" style="stop-color:#612FFF"/>
				<stop  offset="1" style="stop-color:#572AFF"/>
			</linearGradient>
			<path class="st19" d="M476.83,591.09l55.26-55.26c5.63-5.63,5.63-14.75,0-20.38l-4.84-4.84c-5.63-5.63-14.75-5.63-20.38,0
				l-56.19,56.19c-5.63,5.63-14.75,5.63-20.38,0l-4.84-4.84c-5.63-5.63-14.75-5.63-20.38,0c-0.08,0.08-0.17,0.15-0.25,0.22
				l0.02,0.01L188.49,775.47c-0.59,2.54-1.85,4.96-3.84,6.94l-15.13,15.13c-5.63,5.63-5.63,14.75,0,20.38l4.84,4.84
				c5.63,5.63,14.75,5.63,20.38,0l11.42-11.42c5.63-5.63,14.75-5.63,20.38,0l4.84,4.84c5.63,5.63,14.75,5.63,20.38,0l25.01-25.01
				c2.35-2.35,5.31-3.71,8.38-4.09L472.67,602.6C472.29,598.49,473.68,594.24,476.83,591.09z"/>
		</g>
		<g>
			<linearGradient id="SVGID_21_" gradientUnits="userSpaceOnUse" x1="239.7152" y1="823.5306" x2="619.7686" y2="604.1068">
				<stop  offset="0" style="stop-color:#DD6AFF"/>
				<stop  offset="0.303" style="stop-color:#AB52FF"/>
				<stop  offset="0.6168" style="stop-color:#7E3CFF"/>
				<stop  offset="0.8596" style="stop-color:#612FFF"/>
				<stop  offset="1" style="stop-color:#572AFF"/>
			</linearGradient>
			<path class="st20" d="M591.78,556.62l-4.84-4.84c-5.63-5.63-14.75-5.63-20.38,0l-64.53,64.53c-2.48,2.48-5.64,3.86-8.88,4.16
				L305.87,803.2c0.97,4.61-0.32,9.6-3.9,13.18l-34.27,34.27c-5.63,5.63-5.63,14.75,0,20.38l4.84,4.84c5.63,5.63,14.75,5.63,20.38,0
				l298.86-298.86C597.41,571.37,597.41,562.24,591.78,556.62z"/>
		</g>
		<linearGradient id="SVGID_22_" gradientUnits="userSpaceOnUse" x1="370.4335" y1="687.2509" x2="423.5988" y2="734.1613">
			<stop  offset="0.2224" style="stop-color:#000000"/>
			<stop  offset="0.5713" style="stop-color:#000000;stop-opacity:0"/>
		</linearGradient>
		<path class="st21" d="M481.66,616.31l-4.84-4.84c-2.48-2.48-3.86-5.63-4.16-8.87L285.14,787.07c4.27-0.54,8.72,0.82,12,4.09
			l4.84,4.84c2.05,2.05,3.34,4.56,3.9,7.2l187.29-182.73C489.05,620.84,484.81,619.46,481.66,616.31z"/>
	</g>
</g>
<g>
	<linearGradient id="SVGID_23_" gradientUnits="userSpaceOnUse" x1="2064.7158" y1="59.8054" x2="2329.8652" y2="-93.2788">
		<stop  offset="0" style="stop-color:#DD6AFF"/>
		<stop  offset="0.303" style="stop-color:#AB52FF"/>
		<stop  offset="0.6168" style="stop-color:#7E3CFF"/>
		<stop  offset="0.8596" style="stop-color:#612FFF"/>
		<stop  offset="1" style="stop-color:#572AFF"/>
	</linearGradient>
	<path class="st22" d="M2316.85-115.81c-5.64,5.39-14.58,5.33-20.13-0.22l-4.84-4.84c-1.36-1.36-0.09-5.23,2.61-10.3l0,0
		L2078.42,83.54c6.57-3.84,11.77-5.97,13.4-4.34l4.84,4.84c3.65,3.65,4.91,8.76,3.84,13.44l216.38-213.27L2316.85-115.81z"/>
</g>
<g>
	<linearGradient id="SVGID_24_" gradientUnits="userSpaceOnUse" x1="2082.7244" y1="66.031" x2="2310.885" y2="-65.6975">
		<stop  offset="0" style="stop-color:#DD6AFF"/>
		<stop  offset="0.303" style="stop-color:#AB52FF"/>
		<stop  offset="0.6168" style="stop-color:#7E3CFF"/>
		<stop  offset="0.8596" style="stop-color:#612FFF"/>
		<stop  offset="1" style="stop-color:#572AFF"/>
	</linearGradient>
	<path class="st23" d="M2289.66-86.69l-4.84-4.84c-2.48-2.48-3.86-5.63-4.16-8.87L2093.14,84.07c4.27-0.54,8.72,0.82,12,4.09
		l4.84,4.84c2.05,2.05,3.34,4.56,3.9,7.2l187.29-182.73C2297.05-82.16,2292.81-83.54,2289.66-86.69z"/>
</g>
<g>
	<linearGradient id="SVGID_25_" gradientUnits="userSpaceOnUse" x1="2285.864" y1="-67.235" x2="2315.9211" y2="-84.5884">
		<stop  offset="0" style="stop-color:#DD6AFF"/>
		<stop  offset="0.303" style="stop-color:#AB52FF"/>
		<stop  offset="0.6168" style="stop-color:#7E3CFF"/>
		<stop  offset="0.8596" style="stop-color:#612FFF"/>
		<stop  offset="1" style="stop-color:#572AFF"/>
	</linearGradient>
	<path class="st24" d="M2290.7-62.33c5.63,5.63,14.75,5.63,20.38,0l3.4-3.4c5.63-5.63,5.63-14.75,0-20.38l-3.4-3.4
		c-5.63-5.63-14.75-5.63-20.38,0l-3.4,3.4c-5.63,5.63-5.63,14.75,0,20.38L2290.7-62.33z"/>
</g>
<g>
	<linearGradient id="SVGID_26_" gradientUnits="userSpaceOnUse" x1="2124.6384" y1="52.0113" x2="2154.6953" y2="34.6578">
		<stop  offset="0" style="stop-color:#DD6AFF"/>
		<stop  offset="0.303" style="stop-color:#AB52FF"/>
		<stop  offset="0.6168" style="stop-color:#7E3CFF"/>
		<stop  offset="0.8596" style="stop-color:#612FFF"/>
		<stop  offset="1" style="stop-color:#572AFF"/>
	</linearGradient>
	<path class="st25" d="M2149.86,29.75c-5.63-5.63-14.75-5.63-20.38,0l-3.4,3.4c-5.63,5.63-5.63,14.75,0,20.38l3.4,3.4
		c5.63,5.63,14.75,5.63,20.38,0l3.4-3.4c5.63-5.63,5.63-14.75,0-20.38L2149.86,29.75z"/>
</g>
<linearGradient id="SVGID_27_" gradientUnits="userSpaceOnUse" x1="2121.6875" y1="23.03" x2="2172.0762" y2="67.4906">
	<stop  offset="0.2224" style="stop-color:#000000"/>
	<stop  offset="0.5713" style="stop-color:#000000;stop-opacity:0"/>
</linearGradient>
<path class="st26" d="M2258.85-60.81c-5.64,5.39-14.58,5.33-20.13-0.22l-4.84-4.84c-1.36-1.36-0.09-5.23,2.61-10.3l0,0
	l-216.07,214.71c6.57-3.84,11.77-5.97,13.4-4.34l4.84,4.84c3.65,3.65,4.91,8.76,3.84,13.44L2258.86-60.8L2258.85-60.81z"/>
<g>
	<linearGradient id="SVGID_28_" gradientUnits="userSpaceOnUse" x1="2075.6001" y1="89.2854" x2="2442.5046" y2="-122.5471">
		<stop  offset="0" style="stop-color:#DD6AFF"/>
		<stop  offset="0.303" style="stop-color:#AB52FF"/>
		<stop  offset="0.6168" style="stop-color:#7E3CFF"/>
		<stop  offset="0.8596" style="stop-color:#612FFF"/>
		<stop  offset="1" style="stop-color:#572AFF"/>
	</linearGradient>
	<path class="st27" d="M2168.42,110.54l216.07-214.71l0,0c8.47-15.91,31.04-43.73,31.04-43.73c5.63-5.63,5.63-14.75,0-20.38
		l-4.84-4.84c-5.63-5.63-14.75-5.63-20.38,0l-287.75,287.75c-5.63,5.63-5.63,14.75,0,20.38l4.84,4.84c5.63,5.63,14.75,5.63,20.38,0
		c0,0,23.96-19.45,40.13-29.01C2168.08,110.74,2168.25,110.64,2168.42,110.54z"/>
</g>
<g>
	<linearGradient id="SVGID_29_" gradientUnits="userSpaceOnUse" x1="1999.0278" y1="133.3325" x2="2402.7793" y2="-99.7735">
		<stop  offset="0" style="stop-color:#DD6AFF"/>
		<stop  offset="0.303" style="stop-color:#AB52FF"/>
		<stop  offset="0.6168" style="stop-color:#7E3CFF"/>
		<stop  offset="0.8596" style="stop-color:#612FFF"/>
		<stop  offset="1" style="stop-color:#572AFF"/>
	</linearGradient>
	<path class="st28" d="M2322.82-65.91l55.26-55.26c5.63-5.63,5.63-14.75,0-20.38l-4.84-4.84c-5.63-5.63-14.75-5.63-20.38,0
		l-56.19,56.19c-5.63,5.63-14.75,5.63-20.38,0l-4.84-4.84c-5.63-5.63-14.75-5.63-20.38,0c-0.08,0.08-0.17,0.15-0.25,0.22l0.02,0.01
		l-216.38,213.27c-0.59,2.54-1.85,4.96-3.84,6.94l-15.13,15.13c-5.63,5.63-5.63,14.75,0,20.38l4.84,4.84
		c5.63,5.63,14.75,5.63,20.38,0l11.42-11.42c5.63-5.63,14.75-5.63,20.38,0l4.84,4.84c5.63,5.63,14.75,5.63,20.38,0l25.01-25.01
		c2.35-2.35,5.31-3.71,8.38-4.09L2318.67-54.4C2318.29-58.51,2319.68-62.76,2322.82-65.91z"/>
</g>
<g>
	<linearGradient id="SVGID_30_" gradientUnits="userSpaceOnUse" x1="2024.7152" y1="109.5306" x2="2404.7686" y2="-109.8933">
		<stop  offset="0" style="stop-color:#DD6AFF"/>
		<stop  offset="0.303" style="stop-color:#AB52FF"/>
		<stop  offset="0.6168" style="stop-color:#7E3CFF"/>
		<stop  offset="0.8596" style="stop-color:#612FFF"/>
		<stop  offset="1" style="stop-color:#572AFF"/>
	</linearGradient>
	<path class="st29" d="M2376.78-157.38l-4.84-4.84c-5.63-5.63-14.75-5.63-20.38,0l-64.53,64.53c-2.48,2.48-5.64,3.86-8.88,4.16
		L2090.87,89.2c0.97,4.61-0.32,9.6-3.9,13.18l-34.27,34.27c-5.63,5.63-5.63,14.75,0,20.38l4.84,4.84c5.63,5.63,14.75,5.63,20.38,0
		l298.86-298.86C2382.41-142.63,2382.41-151.76,2376.78-157.38z"/>
</g>
<linearGradient id="SVGID_31_" gradientUnits="userSpaceOnUse" x1="2136.4336" y1="-15.7492" x2="2189.5989" y2="31.1613">
	<stop  offset="0.2224" style="stop-color:#000000"/>
	<stop  offset="0.5713" style="stop-color:#000000;stop-opacity:0"/>
</linearGradient>
<path class="st30" d="M2247.66-86.69l-4.84-4.84c-2.48-2.48-3.86-5.63-4.16-8.87L2051.14,84.07c4.27-0.54,8.72,0.82,12,4.09
	l4.84,4.84c2.05,2.05,3.34,4.56,3.9,7.2l187.29-182.73C2255.05-82.16,2250.81-83.54,2247.66-86.69z"/>
</svg>
